<svg width="512" height="131" viewBox="0 0 512 131" fill="none" xmlns="http://www.w3.org/2000/svg">
<g clip-path="url(#clip0_547_167)">
<path d="M230.938 101.132V94.2365L238.057 92.8932V44.2216L230.938 42.8783V35.938H281.624V52.8634H272.848L272.132 44.6693H249.341V64.5499H272.579V73.2813H249.341V92.8932L256.46 94.2365V101.132H230.938ZM287.176 101.132V94.2365L293.893 92.8932V60.9678L286.773 59.6246V52.6843H305.176V92.8932L311.848 94.2365V101.132H287.176ZM293.445 41.7141V31.2813H305.176V41.7141H293.445ZM316.684 101.132V94.2365L323.4 92.8932V60.9678L316.326 59.6246V52.6843H333.788L334.37 59.7141C335.982 57.2066 337.982 55.2663 340.37 53.8932C342.788 52.4902 345.52 51.7887 348.564 51.7887C353.549 51.7887 357.43 53.326 360.206 56.4007C362.982 59.4454 364.37 64.2216 364.37 70.729V92.8932L371.087 94.2365V101.132H346.773V94.2365L353.087 92.8932V70.8186C353.087 67.1469 352.355 64.5499 350.893 63.0275C349.43 61.4753 347.251 60.6992 344.355 60.6992C342.176 60.6992 340.266 61.1917 338.624 62.1768C337.012 63.132 335.699 64.4753 334.684 66.2066V92.8932L340.818 94.2365V101.132H316.684ZM376.684 101.132V94.2365L383.4 92.8932V60.9678L376.326 59.6246V52.6843H393.788L394.37 58.7738L394.46 59.7589C395.744 57.1917 397.311 55.2216 399.161 53.8484C401.042 52.4753 403.236 51.7887 405.744 51.7887C406.579 51.7887 407.46 51.8634 408.385 52.0126C409.341 52.1619 410.117 52.326 410.714 52.5051L409.415 62.938L403.102 62.5798C401.042 62.4604 399.341 62.8634 397.997 63.7887C396.684 64.7141 395.579 65.9977 394.684 67.6395V92.8932L401.4 94.2365V101.132H376.684ZM436.997 102.072C432.341 102.072 428.341 101.028 424.997 98.938C421.654 96.8484 419.087 93.9529 417.296 90.2514C415.505 86.5201 414.609 82.2365 414.609 77.4007V76.4604C414.609 71.6544 415.505 67.4007 417.296 63.6992C419.087 59.9977 421.654 57.0872 424.997 54.9678C428.341 52.8484 432.311 51.7887 436.908 51.7887C441.564 51.7887 445.564 52.8484 448.908 54.9678C452.251 57.0574 454.818 59.9529 456.609 63.6544C458.4 67.3559 459.296 71.6246 459.296 76.4604V77.4007C459.296 82.2365 458.4 86.5201 456.609 90.2514C454.818 93.9529 452.251 96.8484 448.908 98.938C445.594 101.028 441.624 102.072 436.997 102.072ZM436.997 93.3857C439.505 93.3857 441.564 92.7141 443.176 91.3708C444.818 89.9977 446.042 88.1171 446.848 85.729C447.654 83.3111 448.057 80.535 448.057 77.4007V76.4604C448.057 73.3559 447.654 70.6096 446.848 68.2216C446.042 65.8335 444.818 63.9529 443.176 62.5798C441.535 61.2066 439.445 60.5201 436.908 60.5201C434.43 60.5201 432.37 61.2066 430.729 62.5798C429.087 63.9529 427.863 65.8335 427.057 68.2216C426.281 70.6096 425.893 73.3559 425.893 76.4604V77.4007C425.893 80.535 426.281 83.3111 427.057 85.729C427.863 88.1171 429.087 89.9977 430.729 91.3708C432.4 92.7141 434.49 93.3857 436.997 93.3857ZM489.117 102.072C484.46 102.072 480.46 101.028 477.117 98.938C473.773 96.8484 471.206 93.9529 469.415 90.2514C467.624 86.5201 466.729 82.2365 466.729 77.4007V76.4604C466.729 71.6544 467.624 67.4007 469.415 63.6992C471.206 59.9977 473.773 57.0872 477.117 54.9678C480.46 52.8484 484.43 51.7887 489.027 51.7887C493.684 51.7887 497.684 52.8484 501.027 54.9678C504.37 57.0574 506.938 59.9529 508.729 63.6544C510.52 67.3559 511.415 71.6246 511.415 76.4604V77.4007C511.415 82.2365 510.52 86.5201 508.729 90.2514C506.938 93.9529 504.37 96.8484 501.027 98.938C497.714 101.028 493.744 102.072 489.117 102.072ZM489.117 93.3857C491.624 93.3857 493.684 92.7141 495.296 91.3708C496.938 89.9977 498.161 88.1171 498.967 85.729C499.773 83.3111 500.176 80.535 500.176 77.4007V76.4604C500.176 73.3559 499.773 70.6096 498.967 68.2216C498.161 65.8335 496.938 63.9529 495.296 62.5798C493.654 61.2066 491.564 60.5201 489.027 60.5201C486.549 60.5201 484.49 61.2066 482.848 62.5798C481.206 63.9529 479.982 65.8335 479.176 68.2216C478.4 70.6096 478.012 73.3559 478.012 76.4604V77.4007C478.012 80.535 478.4 83.3111 479.176 85.729C479.982 88.1171 481.206 89.9977 482.848 91.3708C484.52 92.7141 486.609 93.3857 489.117 93.3857Z" fill="#023047"/>
<rect x="5.40356" y="64.8428" width="84.0597" height="84.0597" rx="15.2836" transform="rotate(-45 5.40356 64.8428)" fill="#023047" stroke="white" stroke-width="7.64179"/>
<rect x="57.8496" y="65.7068" width="84.0597" height="84.0597" rx="15.2836" transform="rotate(-45 57.8496 65.7068)" fill="#023047" stroke="white" stroke-width="7.64179"/>
</g>
<defs>
<clipPath id="clip0_547_167">
<rect width="512" height="130.55" fill="white"/>
</clipPath>
</defs>
</svg>
